<?xml version="1.0" standalone="no"?>
<!DOCTYPE svg PUBLIC "-//W3C//DTD SVG 20010904//EN"
 "http://www.w3.org/TR/2001/REC-SVG-20010904/DTD/svg10.dtd">
<svg version="1.0" xmlns="http://www.w3.org/2000/svg"
 width="800.000000pt" height="600.000000pt" viewBox="0 0 800.000000 600.000000"
 preserveAspectRatio="xMidYMid meet">

<g transform="translate(0.000000,600.000000) scale(0.100000,-0.100000)"
fill="#000000" stroke="none">
<path d="M4236 4037 c-13 -10 -20 -31 -24 -69 -4 -48 -1 -59 18 -78 l22 -22
21 20 c29 30 30 113 2 142 -18 18 -23 18 -39 7z"/>
<path d="M3836 4008 c-9 -12 -16 -41 -16 -63 0 -73 54 -114 78 -60 25 56 5
145 -33 145 -8 0 -21 -10 -29 -22z"/>
<path d="M3792 2738 c-4 -13 -5 -93 -2 -178 l5 -155 30 -3 c23 -2 53 12 129
63 l98 66 115 -76 c63 -42 122 -75 131 -73 15 3 17 24 20 176 2 166 2 172 -17
172 -22 0 -129 -56 -200 -103 l-45 -30 -40 23 c-23 12 -65 41 -94 64 -62 48
-104 76 -115 76 -4 0 -11 -10 -15 -22z"/>
<path d="M4896 1599 c-68 -53 16 -169 114 -156 33 4 41 0 98 -53 l62 -59 0
-68 c0 -37 3 -92 7 -122 l6 -54 -394 6 c-217 4 -732 7 -1145 7 l-751 0 -2 109
-1 109 63 59 c60 56 65 58 108 55 38 -3 51 1 78 24 42 35 53 65 40 104 -13 36
-35 50 -80 50 -38 0 -99 -58 -99 -94 0 -15 -25 -45 -80 -95 l-80 -72 0 -125 0
-124 -113 0 -113 0 -13 38 c-20 56 -78 148 -111 176 -56 46 -188 106 -237 106
-40 0 -44 -2 -41 -22 2 -17 14 -24 53 -33 65 -15 146 -57 194 -100 45 -41 100
-150 108 -213 12 -109 -72 -212 -172 -212 -62 0 -73 17 -52 84 34 107 13 168
-63 180 -49 8 -123 -10 -145 -34 -14 -16 -17 -40 -15 -142 1 -68 4 -143 8
-168 l7 -45 190 -2 c105 -1 227 -5 273 -8 l82 -7 0 -349 0 -349 30 0 30 0 0
350 0 350 143 0 142 0 -3 -350 -4 -350 25 0 24 0 7 231 c7 247 16 411 23 418
4 5 478 -30 748 -55 351 -33 885 -99 1128 -140 l37 -7 0 -223 0 -224 30 0 30
0 0 360 0 360 115 0 115 0 0 -360 0 -360 30 0 30 0 0 359 0 358 260 5 c189 3
264 8 273 17 12 12 26 210 18 283 -4 49 -19 57 -129 64 -82 6 -91 5 -111 -15
-26 -26 -27 -61 -1 -111 40 -79 15 -130 -65 -130 -90 0 -153 98 -143 224 7 76
43 151 100 206 44 42 167 110 199 110 28 0 52 29 38 46 -18 22 -50 17 -137
-26 -129 -62 -220 -162 -247 -273 -7 -27 -8 -27 -96 -27 l-89 0 0 28 c0 15 -3
74 -6 132 l-5 105 -75 70 c-41 39 -74 78 -74 87 0 39 -85 108 -133 108 -8 0
-26 -9 -41 -21z m-2592 -569 c4 -5 -2 -43 -15 -85 -22 -75 -22 -78 -5 -110 45
-83 179 -72 274 23 31 31 44 54 58 109 l18 70 550 6 c303 3 763 3 1021 -1 259
-4 632 -7 831 -6 l361 1 12 -65 c15 -83 30 -111 83 -157 l43 -37 -740 7 c-513
4 -841 3 -1070 -5 -343 -13 -979 -18 -1336 -11 l-206 4 -5 100 c-6 126 0 159
32 168 27 8 80 1 94 -11z m3553 -13 c2 -3 1 -57 -3 -121 l-7 -116 -86 0 c-77
1 -84 2 -67 15 31 23 56 68 56 98 0 15 -9 45 -20 67 -35 68 -31 74 51 67 39
-3 73 -8 76 -10z"/>
<path d="M1920 698 c0 -28 70 -91 136 -124 91 -44 284 -43 301 2 11 30 -12 37
-79 25 -106 -20 -200 7 -279 80 -48 44 -79 51 -79 17z"/>
<path d="M5980 660 c-35 -27 -132 -50 -212 -50 -73 0 -94 -14 -68 -45 28 -34
215 -7 304 43 61 35 76 72 29 71 -15 0 -39 -9 -53 -19z"/>
</g>
</svg>
